<svg width="230" height="230" viewBox="0 0 230 230" fill="none" xmlns="http://www.w3.org/2000/svg">
<path d="M164.225 33.1612C163.456 34.3403 162.501 35.2044 161.359 35.7535C160.235 36.3111 158.996 36.5574 157.644 36.4923C156.291 36.4272 154.901 36.0459 153.475 35.3482C152.186 34.7178 151.096 33.9402 150.207 33.0153C149.334 32.0988 148.684 31.0777 148.254 29.952C147.825 28.8263 147.648 27.6213 147.722 26.3371C147.805 25.0357 148.174 23.7146 148.829 22.374C149.493 21.0161 150.309 19.9136 151.277 19.0665C152.245 18.2193 153.306 17.6196 154.458 17.2671C155.618 16.8975 156.828 16.7756 158.087 16.9014C159.363 17.0356 160.646 17.4179 161.935 18.0483C163.379 18.7543 164.537 19.6298 165.411 20.6746C166.293 21.7022 166.855 22.8396 167.097 24.0868C167.364 25.3252 167.269 26.6096 166.81 27.94L164.438 26.78C164.609 25.8629 164.576 24.9947 164.338 24.1753C164.099 23.3559 163.682 22.6194 163.086 21.9658C162.498 21.295 161.749 20.7368 160.838 20.2913C159.669 19.7198 158.482 19.4479 157.275 19.4756C156.069 19.5034 154.942 19.847 153.896 20.5066C152.866 21.1746 152.011 22.2047 151.33 23.5969C150.658 24.972 150.37 26.2795 150.466 27.5194C150.588 28.7505 151.009 29.8507 151.728 30.8198C152.455 31.7718 153.403 32.5336 154.572 33.1051C155.483 33.5506 156.371 33.8038 157.235 33.8646C158.117 33.9338 158.955 33.8109 159.748 33.4959C160.541 33.1808 161.251 32.6868 161.878 32.0138L164.225 33.1612Z" fill="white"/>
<path d="M171.703 47.245C170.642 46.3368 169.861 45.278 169.36 44.0685C168.859 42.859 168.707 41.6087 168.905 40.3177C169.104 39.0267 169.707 37.7925 170.714 36.615C171.735 35.423 172.867 34.6294 174.112 34.2342C175.369 33.8244 176.634 33.7736 177.907 34.0819C179.179 34.3901 180.346 34.9983 181.407 35.9065C182.468 36.8147 183.242 37.8673 183.728 39.0644C184.215 40.2615 184.353 41.5128 184.142 42.8183C183.944 44.1093 183.335 45.3508 182.315 46.5428C181.307 47.7202 180.181 48.5066 178.936 48.9019C177.691 49.2971 176.439 49.3468 175.182 49.051C173.924 48.7552 172.764 48.1532 171.703 47.245ZM173.252 45.4352C173.906 45.9951 174.634 46.366 175.435 46.548C176.263 46.7279 177.087 46.6775 177.906 46.3967C178.753 46.1138 179.525 45.5654 180.221 44.7513C180.93 43.9227 181.359 43.0684 181.508 42.1884C181.671 41.3208 181.6 40.4917 181.295 39.7013C181.003 38.9233 180.531 38.2543 179.877 37.6945C179.222 37.1347 178.481 36.7648 177.653 36.5849C176.837 36.3904 176.006 36.4346 175.16 36.7175C174.313 37.0004 173.529 37.5634 172.808 38.4065C172.111 39.2206 171.681 40.0614 171.518 40.929C171.381 41.7945 171.466 42.6225 171.772 43.4129C172.09 44.1888 172.583 44.8629 173.252 45.4352Z" fill="white"/>
<path d="M193.049 47.5133L194.69 49.7259L183.189 58.2596L181.547 56.0469L193.049 47.5133ZM198.17 53.9341C198.649 54.5794 198.99 55.2317 199.193 55.891C199.397 56.5502 199.451 57.201 199.355 57.8434C199.276 58.4744 199.041 59.0893 198.651 59.6881C198.289 60.2909 197.769 60.8431 197.093 61.3447L189.602 66.9027L187.978 64.7131L194.984 59.5142C195.891 58.8416 196.402 58.1171 196.517 57.3409C196.658 56.5686 196.399 55.7369 195.737 54.8457C195.224 54.1543 194.596 53.644 193.851 53.3149C193.107 52.9858 192.329 52.8363 191.517 52.8666C190.733 52.9008 189.981 53.1246 189.264 53.5381L190.514 52.5744C191.186 52.1952 191.874 51.9347 192.579 51.7929C193.295 51.6665 193.988 51.6529 194.657 51.752C195.353 51.8551 195.995 52.0937 196.582 52.4679C197.185 52.8307 197.714 53.3195 198.17 53.9341Z" fill="white"/>
<path d="M204.973 64.944L209.06 73.2642L206.922 74.3146L202.835 65.9944L204.973 64.944ZM209.816 66.21L211.018 68.6571L194.764 76.6427L193.562 74.1956L209.816 66.21Z" fill="white"/>
<path d="M199.351 89.3577C199.024 88.1778 199.029 87.0149 199.366 85.8689C199.703 84.7229 200.327 83.7157 201.238 82.8473C202.167 81.9739 203.332 81.3427 204.733 80.9537C206.134 80.5648 207.449 80.5077 208.677 80.7824C209.928 81.0704 210.999 81.637 211.889 82.4821C212.797 83.3221 213.425 84.3689 213.773 85.6226C214.157 87.0053 214.131 88.1641 213.696 89.0991C213.265 90.0526 212.547 90.8278 211.541 91.4247C210.541 92.04 209.377 92.5319 208.049 92.9004C207.312 93.1051 206.503 93.2304 205.622 93.2764C204.741 93.3223 203.876 93.2448 203.026 93.0439C202.176 92.843 201.42 92.447 200.76 91.856C200.118 91.2598 199.648 90.427 199.351 89.3577ZM201.854 89.4673C202.125 90.4444 202.565 91.2059 203.173 91.7519C203.805 92.3113 204.536 92.6545 205.365 92.7816C206.195 92.9088 207.061 92.847 207.965 92.5962C208.942 92.325 209.751 91.9119 210.391 91.3569C211.036 90.8203 211.467 90.1547 211.683 89.3599C211.905 88.5836 211.882 87.7162 211.616 86.7575C211.217 85.3195 210.446 84.332 209.304 83.7951C208.168 83.2767 206.89 83.2145 205.47 83.6085C204.511 83.8747 203.717 84.3037 203.087 84.8955C202.475 85.4823 202.05 86.1663 201.81 86.9478C201.594 87.7425 201.608 88.5823 201.854 89.4673ZM214.878 90.6771L215.615 93.3319L201.816 97.1625L201.14 94.7289C201.14 94.7289 201.301 94.6644 201.623 94.5354C201.963 94.4013 202.367 94.2493 202.836 94.0793C203.306 93.9094 203.724 93.7733 204.093 93.6709L214.878 90.6771Z" fill="white"/>
<path d="M208.951 117.141C207.761 117.08 206.711 116.744 205.803 116.134C204.914 115.542 204.217 114.74 203.712 113.728C203.207 112.717 202.926 111.58 202.869 110.319C202.806 108.924 203.035 107.63 203.556 106.438C204.096 105.246 204.905 104.271 205.982 103.514C207.078 102.775 208.401 102.37 209.949 102.301C211.516 102.23 212.87 102.514 214.009 103.152C215.169 103.809 216.071 104.706 216.716 105.846C217.361 106.985 217.715 108.252 217.778 109.648C217.835 110.909 217.657 112.057 217.244 113.09C216.831 114.124 216.209 114.985 215.378 115.674C214.566 116.362 213.571 116.799 212.392 116.986L212.279 114.492C213.297 114.12 214.083 113.501 214.637 112.633C215.212 111.784 215.475 110.824 215.427 109.753C215.388 108.874 215.15 108.061 214.714 107.315C214.279 106.588 213.669 106.012 212.884 105.587C212.118 105.181 211.182 105.003 210.073 105.053C209.003 105.101 208.095 105.362 207.35 105.837C206.625 106.329 206.079 106.957 205.711 107.72C205.363 108.483 205.208 109.313 205.249 110.212C205.304 111.435 205.645 112.416 206.272 113.154C206.899 113.891 207.755 114.399 208.84 114.675L208.951 117.141Z" fill="white"/>
<path d="M217.326 123.672L216.08 132.858L213.72 132.538L214.965 123.352L217.326 123.672ZM220.64 127.423L220.274 130.125L202.328 127.692L202.695 124.99L220.64 127.423Z" fill="white"/>
<path d="M198.709 141.738C199.147 140.412 199.831 139.287 200.76 138.365C201.69 137.443 202.789 136.829 204.059 136.523C205.329 136.217 206.699 136.307 208.171 136.793C209.661 137.285 210.824 138.032 211.662 139.034C212.518 140.042 213.045 141.193 213.242 142.487C213.439 143.782 213.318 145.092 212.88 146.418C212.442 147.744 211.762 148.86 210.838 149.764C209.915 150.668 208.81 151.27 207.522 151.57C206.252 151.876 204.872 151.783 203.382 151.291C201.911 150.805 200.756 150.061 199.918 149.059C199.081 148.057 198.56 146.917 198.357 145.641C198.154 144.365 198.271 143.064 198.709 141.738ZM200.971 142.485C200.701 143.302 200.634 144.116 200.769 144.927C200.917 145.761 201.276 146.505 201.846 147.156C202.429 147.833 203.229 148.339 204.246 148.675C205.282 149.017 206.235 149.09 207.106 148.894C207.971 148.716 208.711 148.336 209.326 147.753C209.936 147.189 210.376 146.498 210.646 145.68C210.916 144.863 210.977 144.037 210.83 143.202C210.7 142.373 210.344 141.621 209.761 140.945C209.179 140.269 208.361 139.757 207.307 139.409C206.289 139.073 205.348 138.994 204.484 139.172C203.631 139.374 202.897 139.766 202.281 140.348C201.684 140.937 201.247 141.649 200.971 142.485Z" fill="white"/>
<path d="M197.651 166.087L192.656 173.241L190.75 171.91L195.745 164.756L197.651 166.087Z" fill="white"/>
<path d="M165.04 195.509C164.335 194.291 163.996 193.048 164.022 191.781C164.033 190.526 164.373 189.31 165.042 188.133C165.711 186.956 166.679 185.888 167.946 184.931C169.091 184.066 170.277 183.445 171.504 183.07C172.716 182.706 173.921 182.587 175.119 182.712C176.317 182.838 177.472 183.224 178.585 183.871C179.708 184.533 180.72 185.459 181.62 186.65C182.531 187.856 183.146 189.082 183.464 190.328C183.782 191.574 183.838 192.791 183.632 193.978C183.437 195.18 182.999 196.315 182.318 197.381C181.622 198.459 180.701 199.43 179.556 200.295C178.274 201.264 176.97 201.902 175.643 202.209C174.328 202.532 173.059 202.519 171.837 202.171C170.611 201.851 169.509 201.185 168.529 200.174L170.636 198.582C171.376 199.15 172.166 199.513 173.005 199.67C173.843 199.828 174.689 199.789 175.541 199.552C176.405 199.331 177.242 198.915 178.051 198.303C179.089 197.519 179.868 196.582 180.389 195.494C180.909 194.405 181.111 193.245 180.996 192.013C180.865 190.793 180.333 189.564 179.398 188.328C178.476 187.107 177.439 186.259 176.29 185.785C175.136 185.337 173.965 185.215 172.775 185.419C171.598 185.637 170.49 186.139 169.452 186.923C168.643 187.534 168.016 188.212 167.57 188.956C167.11 189.711 166.841 190.514 166.764 191.364C166.687 192.214 166.807 193.07 167.123 193.934L165.04 195.509Z" fill="white"/>
<path d="M149.08 195.826C150.37 195.291 151.668 195.074 152.973 195.174C154.279 195.275 155.462 195.706 156.524 196.467C157.585 197.228 158.413 198.324 159.007 199.755C159.608 201.205 159.803 202.574 159.592 203.863C159.388 205.169 158.861 206.32 158.011 207.315C157.16 208.31 156.089 209.076 154.799 209.611C153.509 210.146 152.22 210.36 150.933 210.252C149.645 210.144 148.467 209.7 147.398 208.922C146.336 208.161 145.505 207.056 144.904 205.606C144.31 204.175 144.118 202.815 144.329 201.526C144.54 200.237 145.062 199.098 145.895 198.111C146.729 197.123 147.79 196.361 149.08 195.826ZM149.993 198.026C149.198 198.356 148.538 198.837 148.013 199.469C147.478 200.126 147.15 200.884 147.029 201.742C146.898 202.625 147.038 203.561 147.449 204.551C147.867 205.558 148.434 206.327 149.152 206.858C149.851 207.396 150.623 207.708 151.466 207.793C152.292 207.886 153.102 207.767 153.897 207.437C154.693 207.107 155.358 206.614 155.893 205.957C156.436 205.317 156.773 204.556 156.903 203.673C157.034 202.79 156.887 201.836 156.462 200.811C156.051 199.822 155.496 199.058 154.796 198.519C154.086 198.006 153.31 197.707 152.466 197.622C151.63 197.554 150.806 197.689 149.993 198.026Z" fill="white"/>
<path d="M139.148 214.735L136.431 215.191L134.062 201.067L136.779 200.611L139.148 214.735ZM131.1 216.376C130.308 216.509 129.572 216.516 128.892 216.397C128.212 216.278 127.608 216.031 127.079 215.654C126.554 215.296 126.113 214.807 125.757 214.188C125.385 213.59 125.129 212.877 124.99 212.046L123.447 202.847L126.136 202.396L127.579 211.001C127.766 212.114 128.179 212.899 128.818 213.354C129.441 213.832 130.3 213.979 131.395 213.795C132.244 213.653 132.984 213.325 133.616 212.811C134.248 212.298 134.735 211.673 135.077 210.937C135.403 210.222 135.545 209.451 135.504 208.624L135.793 210.176C135.825 210.947 135.744 211.678 135.55 212.37C135.337 213.066 135.034 213.689 134.641 214.24C134.233 214.813 133.729 215.276 133.128 215.629C132.531 216 131.855 216.25 131.1 216.376Z" fill="white"/>
<path d="M118.129 217.427L108.859 217.288L108.895 214.906L118.164 215.045L118.129 217.427ZM114.8 221.166L112.074 221.125L112.346 203.017L115.072 203.058L114.8 221.166Z" fill="white"/>
<path d="M98.9408 201.344C100.141 201.586 101.176 202.117 102.045 202.937C102.915 203.756 103.53 204.768 103.892 205.973C104.251 207.197 104.286 208.522 103.999 209.947C103.712 211.372 103.167 212.571 102.367 213.541C101.543 214.527 100.554 215.225 99.3973 215.636C98.2371 216.066 97.0193 216.152 95.7439 215.895C94.3372 215.611 93.3156 215.064 92.6789 214.252C92.0235 213.437 91.6573 212.446 91.5803 211.279C91.4845 210.108 91.5728 208.847 91.845 207.497C91.9963 206.747 92.2508 205.968 92.6085 205.162C92.9662 204.356 93.427 203.619 93.9909 202.952C94.5548 202.285 95.2497 201.791 96.0757 201.47C96.8979 201.167 97.853 201.125 98.9408 201.344ZM97.7105 203.526C96.7164 203.326 95.8383 203.373 95.0761 203.669C94.2914 203.979 93.6546 204.475 93.1657 205.157C92.6769 205.84 92.3398 206.64 92.1545 207.559C91.9541 208.553 91.9565 209.461 92.1616 210.283C92.3479 211.102 92.7465 211.787 93.3573 212.34C93.9493 212.888 94.733 213.261 95.7083 213.458C97.1713 213.753 98.4005 213.513 99.3961 212.737C100.373 211.958 101.007 210.847 101.298 209.403C101.495 208.427 101.472 207.525 101.229 206.695C100.983 205.884 100.565 205.195 99.9771 204.628C99.3663 204.075 98.6107 203.708 97.7105 203.526ZM90.7365 214.593L88.0357 214.048L90.8659 200.009L93.3417 200.508C93.3417 200.508 93.3264 200.681 93.2959 201.026C93.2616 201.39 93.214 201.82 93.1532 202.315C93.0924 202.81 93.0242 203.245 92.9486 203.62L90.7365 214.593Z" fill="white"/>
<path d="M69.7901 197.295C70.3852 196.263 71.161 195.48 72.1173 194.948C73.0482 194.425 74.079 194.168 75.2096 194.178C76.3402 194.187 77.4804 194.453 78.6301 194.975C79.9018 195.553 80.9503 196.344 81.7755 197.349C82.5929 198.372 83.0943 199.535 83.2799 200.838C83.4401 202.151 83.1998 203.513 82.5588 204.924C81.9099 206.352 81.0425 207.429 79.9564 208.155C78.8449 208.89 77.6352 209.286 76.3273 209.343C75.0194 209.401 73.7295 209.14 72.4579 208.563C71.3081 208.04 70.3666 207.361 69.6332 206.523C68.8999 205.686 68.4151 204.74 68.1789 203.687C67.9348 202.652 67.9971 201.566 68.3657 200.431L70.6391 201.464C70.5079 202.539 70.7029 203.521 71.2241 204.409C71.72 205.306 72.4556 205.977 73.4312 206.42C74.2325 206.784 75.0647 206.941 75.9277 206.892C76.7732 206.835 77.5633 206.553 78.2979 206.046C79.0072 205.549 79.5913 204.795 80.0503 203.784C80.4934 202.809 80.6729 201.882 80.5888 201.003C80.4793 200.133 80.168 199.362 79.6548 198.687C79.1336 198.03 78.4637 197.516 77.6449 197.144C76.5301 196.637 75.5015 196.496 74.5594 196.719C73.6173 196.943 72.7766 197.475 72.0373 198.316L69.7901 197.295Z" fill="white"/>
<path d="M60.2807 201.844L52.6651 196.559L54.0233 194.602L61.6389 199.887L60.2807 201.844ZM55.4328 203.091L53.1929 201.537L63.5185 186.659L65.7584 188.214L55.4328 203.091Z" fill="white"/>
<path d="M52.6401 177.052C53.6239 178.043 54.3163 179.162 54.7174 180.408C55.1184 181.654 55.1677 182.913 54.8651 184.183C54.5626 185.454 53.8612 186.635 52.7611 187.727C51.6475 188.832 50.4542 189.531 49.1813 189.823C47.8948 190.13 46.63 190.077 45.3869 189.667C44.1438 189.256 43.0303 188.555 42.0465 187.564C41.0627 186.572 40.377 185.46 39.9894 184.227C39.6018 182.995 39.5661 181.736 39.8822 180.452C40.1848 179.182 40.8929 177.994 42.0066 176.889C43.1067 175.797 44.2932 175.105 45.5661 174.812C46.839 174.519 48.0902 174.572 49.3199 174.969C50.5495 175.366 51.6563 176.06 52.6401 177.052ZM50.9492 178.729C50.3427 178.118 49.6476 177.689 48.8638 177.443C48.053 177.196 47.2278 177.179 46.3882 177.393C45.5215 177.606 44.7078 178.09 43.9473 178.844C43.1731 179.613 42.6761 180.429 42.4563 181.294C42.223 182.146 42.2266 182.978 42.467 183.79C42.6939 184.59 43.1105 185.295 43.717 185.906C44.3235 186.517 45.0321 186.946 45.8429 187.193C46.6401 187.453 47.4721 187.476 48.3388 187.263C49.2055 187.05 50.0327 186.553 50.8205 185.771C51.581 185.016 52.078 184.213 52.3113 183.362C52.5175 182.51 52.5004 181.678 52.26 180.865C52.0061 180.066 51.5691 179.354 50.9492 178.729Z" fill="white"/>
<path d="M31.3976 165.097L27.2712 157.41L29.3195 156.311L33.4459 163.998L31.3976 165.097Z" fill="white"/>
<path d="M19.9415 122.649C21.3469 122.576 22.6077 122.839 23.7239 123.438C24.8368 124.019 25.7653 124.875 26.5092 126.006C27.2531 127.138 27.7633 128.486 28.0395 130.05C28.2892 131.463 28.3022 132.801 28.0786 134.065C27.8516 135.309 27.4096 136.437 26.7525 137.446C26.0955 138.456 25.2261 139.309 24.1445 140.006C23.0441 140.705 21.759 141.185 20.2894 141.444C18.8009 141.707 17.4293 141.697 16.1746 141.414C14.9198 141.13 13.8108 140.627 12.8475 139.903C11.8653 139.183 11.0544 138.277 10.4147 137.185C9.77158 136.075 9.32521 134.813 9.07555 133.4C8.79592 131.817 8.82112 130.365 9.15115 129.044C9.46234 127.726 10.0507 126.602 10.9161 125.672C11.7594 124.727 12.8538 124.047 14.1992 123.635L14.6586 126.235C13.8163 126.636 13.1342 127.175 12.6123 127.85C12.0904 128.525 11.7409 129.296 11.5637 130.163C11.3677 131.033 11.3579 131.967 11.5344 132.966C11.7607 134.247 12.2403 135.367 12.9731 136.325C13.706 137.284 14.6471 137.992 15.7966 138.449C16.9427 138.888 18.2789 138.973 19.805 138.703C21.3123 138.437 22.5386 137.899 23.4839 137.091C24.407 136.268 25.0486 135.28 25.4085 134.128C25.7497 132.98 25.8071 131.765 25.5807 130.484C25.4043 129.485 25.086 128.619 24.6259 127.884C24.1625 127.13 23.5699 126.526 22.8483 126.07C22.1266 125.615 21.3092 125.332 20.3959 125.221L19.9415 122.649Z" fill="white"/>
<path d="M26.914 108.187C26.8055 109.58 26.4102 110.835 25.7282 111.952C25.0462 113.07 24.1252 113.929 22.9653 114.529C21.8054 115.13 20.4529 115.37 18.9078 115.249C17.3436 115.127 16.0351 114.68 14.9822 113.907C13.9103 113.133 13.124 112.141 12.6233 110.931C12.1227 109.721 11.9266 108.42 12.0351 107.028C12.1436 105.635 12.5381 104.39 13.2187 103.291C13.8992 102.193 14.829 101.344 16.0079 100.745C17.1678 100.144 18.5299 99.9051 20.0941 100.027C21.6392 100.147 22.9382 100.594 23.991 101.367C25.0439 102.14 25.8214 103.122 26.3236 104.312C26.8257 105.503 27.0225 106.795 26.914 108.187ZM24.5391 108.002C24.606 107.144 24.4769 106.337 24.1519 105.582C23.8093 104.807 23.2831 104.171 22.5734 103.675C21.846 103.157 20.9482 102.857 19.88 102.774C18.7927 102.689 17.8497 102.846 17.051 103.244C16.2538 103.624 15.6259 104.17 15.1673 104.882C14.7103 105.576 14.4483 106.352 14.3814 107.21C14.3145 108.069 14.4524 108.886 14.795 109.661C15.1185 110.434 15.644 111.08 16.3713 111.597C17.0986 112.114 18.0155 112.416 19.1219 112.502C20.1901 112.586 21.1228 112.438 21.92 112.058C22.6997 111.658 23.3188 111.102 23.7773 110.389C24.2168 109.675 24.4707 108.879 24.5391 108.002Z" fill="white"/>
<path d="M14.5611 90.7603L15.3863 88.1316L29.0502 92.4208L28.225 95.0496L14.5611 90.7603ZM16.7456 82.843C16.9863 82.0763 17.3136 81.417 17.7275 80.865C18.1414 80.3131 18.6361 79.8869 19.2118 79.5863C19.7692 79.28 20.4046 79.1084 21.118 79.0717C21.8189 79.0109 22.571 79.1066 23.3742 79.3588L32.2735 82.1524L31.4569 84.7537L23.1326 82.1406C22.0556 81.8025 21.1693 81.8151 20.4737 82.1783C19.7656 82.5176 19.2454 83.2166 18.913 84.2754C18.6551 85.0968 18.6119 85.9055 18.7832 86.7012C18.9545 87.497 19.2909 88.2142 19.7923 88.8529C20.2812 89.4676 20.9038 89.9438 21.6601 90.2815L20.1454 89.8361C19.4439 89.5156 18.8286 89.1119 18.2996 88.625C17.7764 88.1198 17.3582 87.5674 17.0451 86.9678C16.7194 86.3442 16.5354 85.6848 16.4929 84.9896C16.4321 84.2887 16.5164 83.5732 16.7456 82.843Z" fill="white"/>
<path d="M21.6668 70.8587L26.0037 62.6657L28.109 63.7801L23.7722 71.9732L21.6668 70.8587ZM19.8492 66.1947L21.1248 63.785L37.1304 72.2574L35.8549 74.6671L19.8492 66.1947Z" fill="white"/>
<path d="M44.7248 61.0794C43.9631 62.0382 43.0197 62.7182 41.8946 63.1195C40.7694 63.5208 39.5879 63.6085 38.35 63.3826C37.0972 63.1449 35.9015 62.5737 34.7629 61.6692C33.6243 60.7647 32.805 59.7351 32.3051 58.5804C31.802 57.3988 31.6306 56.1996 31.7908 54.9829C31.936 53.7543 32.4132 52.6306 33.2225 51.6119C34.1151 50.4883 35.0676 49.8277 36.0799 49.63C37.1041 49.4173 38.1534 49.5422 39.2277 50.0047C40.3139 50.4522 41.3963 51.1044 42.475 51.9613C43.0743 52.4374 43.6515 53.0181 44.2066 53.7034C44.7618 54.3888 45.208 55.1343 45.5455 55.94C45.8829 56.7456 46.0068 57.5894 45.9172 58.4712C45.8126 59.3411 45.4151 60.2105 44.7248 61.0794ZM43.3417 58.9909C43.9724 58.1969 44.3298 57.3934 44.4136 56.5803C44.4944 55.7404 44.3423 54.9475 43.9573 54.2018C43.5723 53.4561 43.0127 52.7917 42.2786 52.2085C41.4846 51.5777 40.6749 51.1666 39.8495 50.9752C39.0361 50.7688 38.2444 50.8119 37.4744 51.1043C36.7164 51.3818 36.0279 51.9101 35.409 52.6891C34.4807 53.8577 34.1352 55.0616 34.3725 56.3008C34.6217 57.5251 35.3231 58.5955 36.4767 59.5119C37.2557 60.1308 38.0698 60.5209 38.919 60.6824C39.7532 60.8319 40.5568 60.7739 41.3298 60.5083C42.0998 60.2158 42.7704 59.71 43.3417 58.9909ZM36.6606 47.7455L38.3744 45.5881L49.588 54.4964L48.017 56.4739C48.017 56.4739 47.8702 56.3818 47.5768 56.1975C47.2683 56.0013 46.9074 55.7635 46.4941 55.484C46.0808 55.2046 45.7243 54.9458 45.4247 54.7078L36.6606 47.7455Z" fill="white"/>
<path d="M61.5139 36.9663C62.1658 37.964 62.5129 39.0097 62.5552 40.1033C62.6005 41.1701 62.3634 42.2056 61.8439 43.2098C61.3245 44.214 60.5719 45.1108 59.5861 45.9001C58.4959 46.7732 57.3158 47.3504 56.046 47.6319C54.7642 47.8984 53.5002 47.8198 52.254 47.3961C51.0107 46.9454 49.9047 46.1152 48.936 44.9055C47.9553 43.6808 47.387 42.4201 47.2311 41.1233C47.0781 39.7996 47.2717 38.5415 47.812 37.349C48.3523 36.1565 49.1676 35.1238 50.2579 34.2507C51.2436 33.4614 52.2757 32.9291 53.3543 32.6537C54.4329 32.3782 55.4952 32.3733 56.5412 32.6387C57.5752 32.8893 58.5152 33.4357 59.3612 34.2779L57.4122 35.8386C56.5125 35.2354 55.5487 34.9655 54.5208 35.0287C53.4959 35.065 52.5652 35.418 51.7289 36.0878C51.0418 36.6379 50.5252 37.309 50.1789 38.101C49.8476 38.881 49.7419 39.7133 49.8619 40.5977C49.9848 41.4552 50.393 42.3171 51.0867 43.1833C51.7564 44.0197 52.5022 44.5991 53.3241 44.9214C54.1489 45.2169 54.9782 45.2882 55.8118 45.1354C56.6335 44.9677 57.3953 44.6028 58.0972 44.0407C59.0531 43.2753 59.6443 42.4219 59.871 41.4806C60.0977 40.5392 60.0031 39.5487 59.5872 38.509L61.5139 36.9663Z" fill="white"/>
<path d="M61.7372 26.4332L69.8925 22.0258L71.0251 24.1215L62.8697 28.5288L61.7372 26.4332ZM62.8144 21.5448L65.213 20.2485L73.8231 36.1805L71.4244 37.4768L62.8144 21.5448Z" fill="white"/>
<path d="M87.3059 30.8269C85.9762 31.2546 84.6651 31.3647 83.3724 31.1574C82.0797 30.9501 80.9356 30.4237 79.9401 29.5781C78.9447 28.7326 78.2097 27.5721 77.7352 26.0967C77.2548 24.6031 77.1726 23.2227 77.4886 21.9553C77.7987 20.6698 78.4185 19.566 79.348 18.644C80.2775 17.7221 81.407 17.0472 82.7367 16.6196C84.0663 16.192 85.3684 16.0847 86.6429 16.2979C87.9173 16.5111 89.0552 17.0496 90.0566 17.9133C91.0521 18.7589 91.79 19.9285 92.2704 21.4221C92.7448 22.8974 92.8241 24.2688 92.5082 25.5361C92.1922 26.8034 91.5786 27.8952 90.6673 28.8113C89.756 29.7274 88.6356 30.3993 87.3059 30.8269ZM86.5766 28.5592C87.3962 28.2956 88.0936 27.8704 88.6686 27.2835C89.2559 26.6725 89.6448 25.9445 89.8353 25.0994C90.0381 24.2302 89.9755 23.2856 89.6475 22.2656C89.3136 21.2274 88.8109 20.4143 88.1394 19.8263C87.4862 19.2324 86.7428 18.8585 85.9094 18.7044C85.0943 18.5445 84.2769 18.5964 83.4572 18.86C82.6376 19.1236 81.9341 19.5609 81.3467 20.1719C80.7535 20.7646 80.3555 21.4956 80.1527 22.3647C79.9498 23.2339 80.0183 24.1967 80.3581 25.2532C80.6861 26.2732 81.1768 27.0801 81.83 27.674C82.4956 28.2437 83.2451 28.6056 84.0785 28.7597C84.906 28.8955 85.7387 28.8287 86.5766 28.5592Z" fill="white"/>
<path d="M107.656 17.3309L116.379 17.1497L116.428 19.4739L107.705 19.6551L107.656 17.3309Z" fill="white"/>
</svg>
